<svg xmlns="http://www.w3.org/2000/svg" viewBox="0 0 620 120" width="620" height="120"><rect width="620" height="120" fill="#E8621B"></rect>
  <g transform="translate(40,30) scale(0.52)"><path d="M6 8 C 21 30 39 68 50 116 C 61 68 79 30 94 8 L 77 8 C 67 28 56 58 50 84 C 44 58 33 28 23 8 Z" fill="#FDF4E4"></path><path d="M50 12 L55 19 L50 78 L45 19 Z" fill="#F8CE5A"></path><path d="M37 91 L63 91 L63 98 L37 98 Z" fill="#F8CE5A"></path></g>
  <text x="96" y="86" font-family="Bodoni Moda, Didot, serif" font-size="60" letter-spacing="16.8" fill="#FDF4E4">ELORA</text>
  <line x1="470" y1="40" x2="470" y2="82" stroke="#F8CE5A" stroke-width="1"></line>
  <text x="486" y="58" font-family="Archivo, Helvetica, sans-serif" font-size="11" letter-spacing="3.4" fill="#F8CE5A">BY PRIYA</text>
  <text x="486" y="76" font-family="Archivo, Helvetica, sans-serif" font-size="11" letter-spacing="3.4" fill="#F8CE5A">MAHADEVAN</text>
</svg>